<svg id="ƒŒƒCƒ_1" data-name="ƒŒƒCƒ„[ 1" xmlns="http://www.w3.org/2000/svg" viewBox="0 0 56.02 50.02">
  <defs>
    <style>
      .cls-1 {
        fill: #1d1d1b;
      }

      .cls-2 {
        fill: #fff;
      }

      .cls-3 {
        fill: #f39b9b;
      }
    </style>
  </defs>
  <title>Cat&amp;apos;s paw 4</title>
  <path class="cls-1" d="M38.75,50a28.31,28.31,0,0,1-4-.29,28.87,28.87,0,0,1-3-.6,17,17,0,0,0-3.71-.6,17.81,17.81,0,0,0-3.81.59c-.82.19-1.67.38-2.57.53l-.89.12a17.51,17.51,0,0,1-2.78.24,14.52,14.52,0,0,1-1.48-.08,27.07,27.07,0,0,1-3.9-.42A10.32,10.32,0,0,1,4.39,42.7c-1.3-4-.94-7.5,1-9.75a7,7,0,0,1-.6-.48A14.33,14.33,0,0,1,1.12,27.8c-2.07-4.58-1.42-11.46,3.24-15A9.64,9.64,0,0,1,9.5,11v-.4c0-1.85,0-4.4,1.59-6.52A10.39,10.39,0,0,1,17.25.57,16.08,16.08,0,0,1,21.12,0a8.58,8.58,0,0,1,4.43,1.17l.51.29A19.14,19.14,0,0,1,27.92,2.6l.61-.43A11.83,11.83,0,0,1,35.31.09a12.93,12.93,0,0,1,3.27.43c1.67.44,4.18,1.1,5.92,3.06,1.92,2.15,2,5,2,6.54,0,.1,0,.32,0,.63,0,.09,0,.19,0,.28a9.7,9.7,0,0,1,5.19,1.74c4.66,3.57,5.31,10.45,3.24,15a14.35,14.35,0,0,1-3.45,4.51l-.82.73a7.33,7.33,0,0,1,1.73,4.29,14.31,14.31,0,0,1-.73,5.37C50.1,47.42,45.53,50,38.75,50Z"/>
  <path class="cls-1" d="M49.94,15c-1.66-1.28-4-1.1-6-1.38-.52-.08-.26-3.09-.27-3.46,0-1.63-.15-3.44-1.29-4.72s-2.93-1.78-4.53-2.2A9.34,9.34,0,0,0,30.14,4.5a4.71,4.71,0,0,1-1.89,1,2.47,2.47,0,0,1-2-.55,24.45,24.45,0,0,0-2.15-1.29c-2-1.17-4-.82-6.21-.3a7.94,7.94,0,0,0-4.57,2.51c-1.11,1.47-1,3.46-1,5.21,0,.56.26,2.09-.18,2.55l-.08.05c-2,.28-4.34.1-6,1.38C2.72,17.6,2,22.91,3.7,26.63a11.79,11.79,0,0,0,3,3.74c.74.68,3,1.77,2.29,3a3.05,3.05,0,0,1-.85.83c-2.25,1.76-1.78,5.19-1,7.59a7.57,7.57,0,0,0,6.09,4.9,23.87,23.87,0,0,0,3.61.38A12.71,12.71,0,0,0,20.45,47l.83-.11c2.27-.36,4.41-1.13,6.73-1.15s4.78.89,7.17,1.23c4.72.66,12,.37,13.75-5.11a11.56,11.56,0,0,0,.6-4.29c-.13-1.81-1-2.71-2.24-4a1.28,1.28,0,0,1-.41-.62.85.85,0,0,1,.25-.72,10.81,10.81,0,0,1,.92-.72c.49-.43,1-.85,1.47-1.29a11.41,11.41,0,0,0,2.8-3.6C54,22.91,53.3,17.6,49.94,15Z"/>
  <path class="cls-2" d="M49.94,15c-1.66-1.28-4-1.1-6-1.38-.52-.08-.26-3.09-.27-3.46,0-1.63-.15-3.44-1.29-4.72s-2.93-1.78-4.53-2.2A9.34,9.34,0,0,0,30.14,4.5a4.71,4.71,0,0,1-1.89,1,2.47,2.47,0,0,1-2-.55,24.45,24.45,0,0,0-2.15-1.29c-2-1.17-4-.82-6.21-.3a7.94,7.94,0,0,0-4.57,2.51c-1.11,1.47-1,3.46-1,5.21,0,.56.26,2.09-.18,2.55l-.08.05c-2,.28-4.34.1-6,1.38C2.72,17.6,2,22.91,3.7,26.63a11.79,11.79,0,0,0,3,3.74c.74.68,3,1.77,2.29,3a3.05,3.05,0,0,1-.85.83c-2.25,1.76-1.78,5.19-1,7.59a7.57,7.57,0,0,0,6.09,4.9,23.87,23.87,0,0,0,3.61.38A12.71,12.71,0,0,0,20.45,47l.83-.11c2.27-.36,4.41-1.13,6.73-1.15s4.78.89,7.17,1.23c4.72.66,12,.37,13.75-5.11a11.56,11.56,0,0,0,.6-4.29c-.13-1.81-1-2.71-2.24-4a1.28,1.28,0,0,1-.41-.62.85.85,0,0,1,.25-.72,10.81,10.81,0,0,1,.92-.72c.49-.43,1-.85,1.47-1.29a11.41,11.41,0,0,0,2.8-3.6C54,22.91,53.3,17.6,49.94,15Z"/>
  <g>
    <path class="cls-2" d="M49.94,15c-1.66-1.28-4-1.1-6-1.38-.52-.08-.26-3.09-.27-3.46,0-1.63-.15-3.44-1.29-4.72s-2.93-1.78-4.53-2.2A9.34,9.34,0,0,0,30.14,4.5a4.71,4.71,0,0,1-1.89,1,2.47,2.47,0,0,1-2-.55,24.45,24.45,0,0,0-2.15-1.29c-2-1.17-4-.82-6.21-.3a7.94,7.94,0,0,0-4.57,2.51c-1.11,1.47-1,3.46-1,5.21,0,.56.26,2.09-.18,2.55l-.08.05c-2,.28-4.34.1-6,1.38C2.72,17.6,2,22.91,3.7,26.63a11.79,11.79,0,0,0,3,3.74c.74.68,3,1.77,2.29,3a3.05,3.05,0,0,1-.85.83c-2.25,1.76-1.78,5.19-1,7.59a7.57,7.57,0,0,0,6.09,4.9,23.87,23.87,0,0,0,3.61.38A12.71,12.71,0,0,0,20.45,47l.83-.11c2.27-.36,4.41-1.13,6.73-1.15s4.78.89,7.17,1.23c4.72.66,12,.37,13.75-5.11a11.56,11.56,0,0,0,.6-4.29c-.13-1.81-1-2.71-2.24-4a1.28,1.28,0,0,1-.41-.62.85.85,0,0,1,.25-.72,10.81,10.81,0,0,1,.92-.72c.49-.43,1-.85,1.47-1.29a11.41,11.41,0,0,0,2.8-3.6C54,22.91,53.3,17.6,49.94,15Z"/>
    <path class="cls-3" d="M24.75,13.27c.8,2.91-.12,5.7-2.05,6.23s-4.15-1.39-5-4.3S17.86,9.51,19.79,9,24,10.36,24.75,13.27Z"/>
    <path class="cls-3" d="M37.58,15c-.76,2.92-3,4.87-4.9,4.36s-2.89-3.29-2.13-6.21,3-4.87,4.91-4.36S38.35,12.09,37.58,15Z"/>
    <path class="cls-3" d="M46.58,25.64c-1.51,2.61-4.15,3.91-5.88,2.9S38.78,24.6,40.3,22s4.15-3.91,5.89-2.9S48.1,23,46.58,25.64Z"/>
    <path class="cls-3" d="M15.16,22c1.38,2.68,1.05,5.6-.74,6.52S10.07,28,8.69,25.35s-1-5.6.75-6.52S13.79,19.35,15.16,22Z"/>
    <path class="cls-3" d="M39.9,35.09a6.9,6.9,0,0,0-2.14-2.77A18.73,18.73,0,0,1,34,27.6a11,11,0,0,1-1-3,4.62,4.62,0,0,0-1.46-2.54,6.78,6.78,0,0,0-4.07-1.72,6.84,6.84,0,0,0-4.08,1.72,4.68,4.68,0,0,0-1.46,2.54,10.68,10.68,0,0,1-1,3,18.73,18.73,0,0,1-3.73,4.72,6.9,6.9,0,0,0-2.14,2.77,5.11,5.11,0,0,0,2.79,5.7c1.74.67,4.43-.24,6.4-1a12.91,12.91,0,0,1,3.23-1,12.72,12.72,0,0,1,3.22,1c2,.73,4.67,1.64,6.41,1A5.11,5.11,0,0,0,39.9,35.09Z"/>
  </g>
</svg>
